<svg xmlns="http://www.w3.org/2000/svg" width="18" height="13.141" viewBox="0 0 18 13.141">
  <g id="Group_655" data-name="Group 655" transform="translate(-2349.474 690.007)">
    <path id="Path_879" data-name="Path 879" d="M502.314,85.754a.736.736,0,0,0-1.041,1.041,7.54,7.54,0,0,1,0,10.637.743.743,0,0,0,0,1.041.727.727,0,0,0,.53.208.813.813,0,0,0,.53-.208,8.979,8.979,0,0,0-.019-12.719Z" transform="translate(1862.51 -775.548)" fill="#fff"/>
    <path id="Path_880" data-name="Path 880" d="M85.476,92.113a7.473,7.473,0,0,1,2.2-5.319.736.736,0,0,0-1.041-1.041,9,9,0,0,0,0,12.719.727.727,0,0,0,.53.208.813.813,0,0,0,.53-.208.743.743,0,0,0,0-1.041,7.413,7.413,0,0,1-2.215-5.319Z" transform="translate(2265.474 -775.547)" fill="#fff"/>
    <path id="Path_881" data-name="Path 881" d="M447.434,140.634a.736.736,0,0,0-1.041,1.041,4.869,4.869,0,0,1,1.438,3.464,4.794,4.794,0,0,1-1.438,3.445.743.743,0,0,0,0,1.041.727.727,0,0,0,.53.208.813.813,0,0,0,.53-.208,6.342,6.342,0,0,0,1.855-4.5,6.43,6.43,0,0,0-1.874-4.486Z" transform="translate(1915.535 -828.573)" fill="#fff"/>
    <path id="Path_882" data-name="Path 882" d="M163.3,145.138a4.869,4.869,0,0,1,1.438-3.464.736.736,0,0,0-1.041-1.041,6.374,6.374,0,0,0,.019,9.01.766.766,0,0,0,.511.208.748.748,0,0,0,.53-1.268,4.811,4.811,0,0,1-1.457-3.445Z" transform="translate(2190.266 -828.572)" fill="#fff"/>
    <path id="Path_883" data-name="Path 883" d="M392.909,195.309a.736.736,0,1,0-1.041,1.041,2.285,2.285,0,0,1,0,3.218.743.743,0,0,0,0,1.041.766.766,0,0,0,.511.208.747.747,0,0,0,.53-.227,3.771,3.771,0,0,0,1.1-2.65,3.844,3.844,0,0,0-1.1-2.631Z" transform="translate(1968.225 -881.393)" fill="#fff"/>
    <path id="Path_884" data-name="Path 884" d="M241.258,195.514a.743.743,0,0,0-1.041,0,3.692,3.692,0,0,0-1.1,2.65,3.738,3.738,0,0,0,1.1,2.65.727.727,0,0,0,.53.208.813.813,0,0,0,.53-.208.743.743,0,0,0,0-1.041,2.19,2.19,0,0,1-.681-1.609,2.327,2.327,0,0,1,.663-1.609.743.743,0,0,0,0-1.041Z" transform="translate(2115.598 -881.598)" fill="#fff"/>
    <path id="Path_885" data-name="Path 885" d="M319.2,248.078a1.117,1.117,0,1,1-1.117-1.117,1.117,1.117,0,0,1,1.117,1.117" transform="translate(2040.386 -931.512)" fill="#fff"/>
  </g>
</svg>
