<svg xmlns="http://www.w3.org/2000/svg" width="18" height="16.054" viewBox="0 0 18 16.054">
  <g id="Group_710" data-name="Group 710" transform="translate(-1980.812 -299)">
    <path id="Path_804" data-name="Path 804" d="M160.035,66.178l1.607.89,1.481-.678.321-1.684L162.1,63.238l.186-.321a5.386,5.386,0,0,0-2.779,1.189l.283.055Z" transform="translate(1823.306 236.131)" fill="#fff"/>
    <path id="Path_805" data-name="Path 805" d="M254.3,62.341l-.029-.247-.045-.019c-.151-.067-.321-.132-.463-.186l-.061-.019h0a5.412,5.412,0,0,0-1.054-.235h-.029c-.174-.019-.347-.029-.521-.032h-.035l-.154.28,1.031,1.1Z" transform="translate(1734.296 237.398)" fill="#fff"/>
    <path id="Path_806" data-name="Path 806" d="M105.729,170.541l2.021.321,1.24-1.285-.2-1.661-1.584-.881-1.857.868-.27-.289h0a5.436,5.436,0,0,0,.434,3.342Z" transform="translate(1875.829 135.837)" fill="#fff"/>
    <path id="Path_807" data-name="Path 807" d="M114.8,111.278l-.18-1.5-.267-.051-.032.035c-.112.122-.218.251-.321.386l-.039.048c-.1.138-.2.28-.283.427s-.164.3-.238.456l-.042.08q-.1.225-.18.459v.042l.228.244Z" transform="translate(1867.892 191.044)" fill="#fff"/>
    <path id="Path_808" data-name="Path 808" d="M106.57,374.924a6.954,6.954,0,0,1,.6.546c.225.225.582.543.945.839v-2.77c-.363.3-.678.591-.941.842S106.753,374.779,106.57,374.924Z" transform="translate(1874.3 -63.084)" fill="#fff"/>
    <path id="Path_809" data-name="Path 809" d="M366.479,150.607a5.522,5.522,0,0,1,.736-.373,1.677,1.677,0,0,0-.042-.28,1.334,1.334,0,0,0-.032-.138c-.023-.1-.042-.193-.067-.286s-.035-.109-.051-.164-.051-.17-.083-.251-.045-.112-.067-.17-.048-.119-.077-.18l-.222-.019-.643,1.372Z" transform="translate(1624.466 153.454)" fill="#fff"/>
    <path id="Path_810" data-name="Path 810" d="M226.27,174.415l.183,1.5,1.485.289.733-1.324-1.031-1.105Z" transform="translate(1758.996 129.344)" fill="#fff"/>
    <path id="Path_811" data-name="Path 811" d="M275.421,86.793,275.1,88.4l1.093,1.186,1.639-.431.858-1.87.238.029h0a5.287,5.287,0,0,0-1.626-1.652l.029.247Z" transform="translate(1711.959 214.221)" fill="#fff"/>
    <path id="Path_812" data-name="Path 812" d="M288.009,202.1a5.352,5.352,0,0,1,2.063-3.567l-.476-.437-1.642.437-.784,1.411.643,2.159Z" transform="translate(1700.333 105.915)" fill="#fff"/>
    <path id="Path_813" data-name="Path 813" d="M131.773,283.214l-.238-1.494-1.491-.235-.193.379c.058.087.116.174.18.257s.071.1.112.151h0a5.438,5.438,0,0,0,.4.443,5.382,5.382,0,0,0,.443.4c.051.042.1.077.158.116s.167.122.254.177Z" transform="translate(1851.874 25.589)" fill="#fff"/>
    <path id="Path_814" data-name="Path 814" d="M473.02,409.507l.193.257-.189-.26Z" transform="translate(1521.308 -97.728)" fill="#fff"/>
    <path id="Path_815" data-name="Path 815" d="M487.594,200.865v-.051c0-.016-.023-.106-.035-.161s-.035-.151-.055-.228-.032-.109-.048-.164-.048-.145-.074-.215l-.061-.161q-.042-.106-.09-.209l-.074-.154c-.035-.067-.071-.135-.109-.2l-.083-.145c-.042-.067-.087-.135-.129-.2l-.087-.132c-.051-.071-.106-.141-.161-.209l-.083-.106c-.087-.1-.177-.2-.27-.292s-.193-.183-.292-.27l-.1-.08c-.071-.055-.138-.112-.212-.164l-.128-.087-.2-.132-.145-.08-.206-.109-.164-.071-.212-.093-.154-.061-.222-.074-.158-.048-.238-.058-.151-.032h-.055a3.721,3.721,0,0,0,4,3.991Z" transform="translate(1511.133 107.093)" fill="#fff"/>
    <path id="Path_816" data-name="Path 816" d="M327.339,242.895a8.3,8.3,0,0,1,1.8.476v-.016l.453.209a8.358,8.358,0,0,1,1.337.778l.135.1a14.515,14.515,0,0,1,1.378,1.182,7.856,7.856,0,0,0,.643.562.553.553,0,0,1,0,.909,7.9,7.9,0,0,0-.643.562c-.267.254-.585.549-.964.852l.186.029h0a4.92,4.92,0,0,0,3.808-1.2l-6.957-6.963a4.949,4.949,0,0,0-1.173,2.526Z" transform="translate(1661.639 65.196)" fill="#fff"/>
    <path id="Path_817" data-name="Path 817" d="M379.533,199.435a4.354,4.354,0,0,1-4.348-4.733,4.9,4.9,0,0,0-3.49,1.221l6.966,6.966a4.9,4.9,0,0,0,1.234-3.483,2.358,2.358,0,0,1-.363.029Z" transform="translate(1618.911 109.192)" fill="#fff"/>
    <path id="Path_818" data-name="Path 818" d="M430.3,374.837a7.536,7.536,0,0,1-.611-.549c-.228-.228-.575-.543-.935-.839v2.776c.36-.3.672-.588.935-.839S430.117,374.982,430.3,374.837Z" transform="translate(1563.948 -62.997)" fill="#fff"/>
    <path id="Path_819" data-name="Path 819" d="M394.146,350.212l-.141-.087-.177-.1-.074-.026v4.5l.08-.045.174-.1.145-.087.17-.109.08-.055v-3.724l-.084-.058Z" transform="translate(1597.662 -40.406)" fill="#fff"/>
    <path id="Path_820" data-name="Path 820" d="M166.556,350.127l-.145.09-.17.109-.077.051v3.737l.077.051.17.109.145.087.174.1.08.032V350l-.08.045Z" transform="translate(1816.895 -40.408)" fill="#fff"/>
    <path id="Path_821" data-name="Path 821" d="M192.822,251.628a8.733,8.733,0,0,1,3.126-.582l-.533-1.783-1.671-.321L192.5,250.2l.228,1.443.083-.039Z" transform="translate(1791.525 56.938)" fill="#fff"/>
    <path id="Path_822" data-name="Path 822" d="M201.25,324.386v5.141a8.354,8.354,0,0,0,6.427,0v-5.141a8.355,8.355,0,0,0-6.427,0Zm3.535,1.607v.643h.643v-.643a.321.321,0,0,1,.643,0v.643h.321a.321.321,0,1,1,0,.643h-.321v.643a.321.321,0,1,1-.643,0v-.643h-.643v.643a.321.321,0,0,1-.643,0v-.643H203.5v.643a.321.321,0,0,1-.643,0v-.643h-.321a.321.321,0,0,1,0-.643h.321v-.643a.321.321,0,0,1,.643,0v.643h.643v-.643a.321.321,0,0,1,.643,0Z" transform="translate(1783.097 -15.116)" fill="#fff"/>
  </g>
</svg>
